<svg xmlns="http://www.w3.org/2000/svg" width="480" height="140" viewBox="0 0 480 140">
  <g fill="none" stroke="#2a1d10" stroke-width="2.5" stroke-linecap="square" stroke-linejoin="miter">
    <g transform="translate(0,0)">
      <rect x="10" y="60" width="120" height="48" fill="#8a2a2b"/>
      <rect x="18" y="68" width="16" height="16" fill="#ebdcbc"/>
      <rect x="42" y="68" width="16" height="16" fill="#ebdcbc"/>
      <rect x="66" y="68" width="16" height="16" fill="#ebdcbc"/>
      <rect x="90" y="68" width="16" height="16" fill="#ebdcbc"/>
      <rect x="10" y="108" width="120" height="6" fill="#2a1d10"/>
      <circle cx="32" cy="122" r="10" fill="#b38b3f"/>
      <circle cx="32" cy="122" r="3" fill="#2a1d10" stroke="none"/>
      <circle cx="108" cy="122" r="10" fill="#b38b3f"/>
      <circle cx="108" cy="122" r="3" fill="#2a1d10" stroke="none"/>
    </g>
    <g transform="translate(130,0)">
      <rect x="0" y="70" width="80" height="38" fill="#2f4a2f"/>
      <rect x="4" y="58" width="72" height="14" fill="#2a1d10"/>
      <rect x="0" y="108" width="80" height="6" fill="#2a1d10"/>
      <circle cx="18" cy="122" r="10" fill="#b38b3f"/>
      <circle cx="18" cy="122" r="3" fill="#2a1d10" stroke="none"/>
      <circle cx="62" cy="122" r="10" fill="#b38b3f"/>
      <circle cx="62" cy="122" r="3" fill="#2a1d10" stroke="none"/>
    </g>
    <g transform="translate(210,0)">
      <rect x="0" y="40" width="60" height="68" fill="#8a2a2b"/>
      <rect x="10" y="50" width="18" height="22" fill="#ebdcbc"/>
      <rect x="34" y="50" width="18" height="22" fill="#ebdcbc"/>
      <rect x="60" y="60" width="130" height="48" fill="#2a1d10"/>
      <circle cx="85" cy="84" r="8" fill="#b38b3f"/>
      <circle cx="115" cy="84" r="8" fill="#b38b3f"/>
      <circle cx="145" cy="84" r="8" fill="#b38b3f"/>
      <rect x="158" y="30" width="16" height="30" fill="#2a1d10"/>
      <rect x="154" y="22" width="24" height="10" fill="#2a1d10"/>
      <rect x="120" y="46" width="20" height="14" fill="#b38b3f"/>
      <circle cx="196" cy="80" r="10" fill="#b38b3f"/>
      <polygon points="190,90 220,90 210,112 190,112" fill="#2a1d10"/>
      <rect x="0" y="108" width="220" height="6" fill="#2a1d10"/>
      <circle cx="18" cy="122" r="10" fill="#b38b3f"/>
      <circle cx="18" cy="122" r="3" fill="#2a1d10" stroke="none"/>
      <circle cx="70" cy="126" r="14" fill="#b38b3f"/>
      <circle cx="70" cy="126" r="4" fill="#2a1d10" stroke="none"/>
      <circle cx="110" cy="126" r="14" fill="#b38b3f"/>
      <circle cx="110" cy="126" r="4" fill="#2a1d10" stroke="none"/>
      <circle cx="150" cy="126" r="14" fill="#b38b3f"/>
      <circle cx="150" cy="126" r="4" fill="#2a1d10" stroke="none"/>
      <line x1="70" y1="126" x2="150" y2="126" stroke="#2a1d10" stroke-width="3"/>
    </g>
  </g>
</svg>
